<?xml version='1.0' encoding='utf-8'?>
<svg xmlns="http://www.w3.org/2000/svg" viewBox="0 0 176.76 237.71"> <defs> <style>.cls-1{fill:#8c8c8c;}.cls-2{fill:#cececd;}.cls-3{fill:#bdbcbc;}.cls-4{font-size:35px;fill:#1d1d1b;font-family:LemonMilkbold, Lemon/Milk;font-weight:700;}</style> </defs> <g data-name="Ebene 2"> <path class="cls-1" d="M57,86.84a54.32,54.32,0,0,1-8,2.08c-4.43.79-9.68,1.07-13-1a7.53,7.53,0,0,1-.66-.44l-.3-.21c-.24-.18-.46-.36-.67-.54s-.42-.37-.62-.56C28.7,81.38,18,65.57,10,49.86S-3.32,18.53,2.39,14.09a3,3,0,0,1,.85-.48,16.21,16.21,0,0,1,2-.65s2.13-.72,10.5-.94C27,11.72,42.22,13.41,54,23.34a6.38,6.38,0,0,1,1.21.84,2.74,2.74,0,0,1,.92,1.53c.21,1.26-.68,2.83-2.12,4.21a12.5,12.5,0,0,1-5.51,3c-2.95.7-5.14-.27-8.39-2a85.9,85.9,0,0,0-14.73-6.84,29.41,29.41,0,0,0-6.68-1.71,6,6,0,0,0-4.57,1.08,4.68,4.68,0,0,0-1,1.11,7.6,7.6,0,0,0-1,3C13.38,34.14,20,42.84,25.22,52.76,30.3,62.59,35.89,71.34,41.51,76a4.67,4.67,0,0,0,2.16,1,16.63,16.63,0,0,0,3,.55,13.29,13.29,0,0,0,5.59-1,14.78,14.78,0,0,1,6.16-1,9.65,9.65,0,0,1,5.34,2.14c1.45,1.16,2.38,2.62,2.28,3.86s-1,2-2.52,2.79A55.29,55.29,0,0,1,57,86.84Z"/> <path class="cls-1" d="m133.28 237.71h-84.34a11.73 11.73 0 0 1-11.83-11.61v-58.9a11.4 11.4 0 0 1 0.9-4.45 12.17 12.17 0 0 1 2.56-3.75 12.85 12.85 0 0 1 8.37-3.4h84.34a11.73 11.73 0 0 1 11.83 11.61v58.9a11.73 11.73 0 0 1-11.83 11.6z"/> <rect class="cls-2" x="56.96" y="176.96" width="68.31" height="52.92" rx="7.48" ry="7.48"/> <path class="cls-3" d="m131.33 155.19h-80.49c-7.39 2.07-11.84 4.72-11.84 7.61 0 6.61 23.32 12 52.09 12s53.15-5.6 52.27-12.16c-0.36-2.8-4.63-5.38-12.03-7.45z"/> <ellipse class="cls-1" cx="90.79" cy="158.96" rx="51.13" ry="13.75"/> <path class="cls-3" d="M60.5,148.34a5.1,5.1,0,0,0-.73,3.33c0,6.62,13.58,10.84,30.34,10.84s30.33-4.22,30.33-10.84a5.87,5.87,0,0,0-1.52-3.74A164.77,164.77,0,0,0,91,145.7,166.17,166.17,0,0,0,60.5,148.34Z"/> <ellipse class="cls-1" cx="90.23" cy="149.71" rx="27.94" ry="10.5"/> <path class="cls-3" d="M70,143c.31,5.38,8.89,9.19,19.44,9.19,10.76,0,19.48-4.47,19.48-10a2.48,2.48,0,0,0,0-.27,60.07,60.07,0,0,0-18.66-2.69A56.4,56.4,0,0,0,70,143Z"/> <ellipse class="cls-1" cx="89.61" cy="140.09" rx="16.81" ry="8.63"/> <rect class="cls-1" x="81.05" y="99.21" width="15.87" height="40.02" rx="5.03" ry="5.03"/> <ellipse class="cls-1" cx="89.55" cy="100.65" rx="14.38" ry="5.56"/> <ellipse class="cls-1" cx="89.42" cy="93.87" rx="18.25" ry="6.78"/> <path class="cls-1" d="M119.75,87a55,55,0,0,0,8,2.09c4.43.78,9.68,1.07,13-1l.67-.45c.18-.12.29-.21.29-.21.24-.18.46-.36.68-.54l.61-.55c5.06-4.84,15.76-20.65,23.76-36.36s13.32-31.33,7.62-35.77a3.4,3.4,0,0,0-.86-.48,14.52,14.52,0,0,0-2-.64s-2.13-.73-10.5-.95c-11.25-.29-26.46,1.39-38.25,11.32a6.71,6.71,0,0,0-1.21.84,2.7,2.7,0,0,0-.91,1.54c-.22,1.25.67,2.82,2.12,4.2a12.58,12.58,0,0,0,5.5,3c2.95.69,5.14-.27,8.39-2a86.87,86.87,0,0,1,14.74-6.84,29.22,29.22,0,0,1,6.67-1.71,5.93,5.93,0,0,1,4.58,1.09,4.61,4.61,0,0,1,.94,1.1,7.75,7.75,0,0,1,1.06,3c-1.25,6.55-7.84,15.25-13.09,25.17-5.08,9.83-10.66,18.58-16.29,23.21a4.69,4.69,0,0,1-2.16.94,17.66,17.66,0,0,1-3,.56,13.45,13.45,0,0,1-5.6-1,14.61,14.61,0,0,0-6.15-1A9.57,9.57,0,0,0,113,77.75c-1.44,1.16-2.38,2.62-2.28,3.87.09,1.1,1,1.95,2.52,2.78A56,56,0,0,0,119.75,87Z"/> <path class="cls-3" d="M166.09,20.34c-1.74-1.41-3-2.86-5.5-3A27.61,27.61,0,0,0,142.42,24c-1.15,1-2.5,2.33-2.5,2.33-1.63,1.6-2.79,2.89-3.33,3.5l-2.08,2.34c.67-.32,1.37-.69,2.13-1.1a86.87,86.87,0,0,1,14.74-6.84,29.22,29.22,0,0,1,6.67-1.71,5.93,5.93,0,0,1,4.58,1.09,4.61,4.61,0,0,1,.94,1.1,7.75,7.75,0,0,1,1.06,3c-1.25,6.55-7.84,15.25-13.09,25.17-5.08,9.83-10.66,18.58-16.29,23.21a4.69,4.69,0,0,1-2.16.94,17.66,17.66,0,0,1-3,.56,13.45,13.45,0,0,1-5.6-1,16.29,16.29,0,0,0-3.3-.87,17.57,17.57,0,0,0,1.69,1.77c3.37,3,7.12,4.14,12.33,2.33,3.24-1.13,6.93-1.86,11.17-9.33,12.07-21.29,10.41-20.69,14.5-26.17,4.49-6,7.51-8.11,8.5-13.67C169.6,29.66,170.23,23.71,166.09,20.34Z"/> <path class="cls-3" d="M9.9,19c1.73-1.42,3.67-1.53,6.16-1.67A27.61,27.61,0,0,1,34.23,24c1.15,1,2.5,2.33,2.5,2.33,1.63,1.6,2.79,2.89,3.33,3.5l2.08,2.34c-.67-.32-1.37-.69-2.13-1.1a86.87,86.87,0,0,0-14.74-6.84,29.22,29.22,0,0,0-6.67-1.71A5.93,5.93,0,0,0,14,23.62a4.61,4.61,0,0,0-.94,1.1,7.75,7.75,0,0,0-1.06,3C13.27,34.29,19.86,43,25.11,52.91c5.08,9.83,10.66,18.58,16.29,23.21a4.69,4.69,0,0,0,2.16.94,17.66,17.66,0,0,0,3,.56,13.45,13.45,0,0,0,5.6-1,16.47,16.47,0,0,1,3.3-.87,17.57,17.57,0,0,1-1.69,1.77c-3.37,3-9.29,5.81-14.5,4-3.24-1.13-4.76-3.53-9-11C18.16,49.22,19.82,49.82,15.73,44.34c-4.49-6-7.51-8.11-8.5-13.67C7.05,29.66,5.75,22.38,9.9,19Z"/> <ellipse class="cls-3" cx="88.56" cy="5.61" rx="54.64" ry="5.61"/> <path class="cls-1" d="M88.56,11.21C63.5,11.21,42.39,9.48,36,7.12c-.07,6.33,2.63,19.86,6.52,37.22,0,0,.87,4.57,1.33,6,6.58,20.11,14.62,38.4,23.37,43.23.62.44.64.61,1.5,1.31a5.2,5.2,0,0,0,1.78,1.25c4.25,1.5,10.15-1,16.35-6.37.53-.46,1.06-1,1.58-1.45.53.5,1.05,1,1.58,1.45,6.2,5.42,12.65,8.22,16.59,6.49a5.06,5.06,0,0,0,2-1.49,5.34,5.34,0,0,1,1.24-1.3c8.18-5.3,16.58-23,23.16-43.12.46-1.39,1.34-6,1.34-6,3.85-17.24,6.55-30.7,6.51-37.09C134,9.55,113.16,11.21,88.56,11.21Z"/> <text class="cls-4" transform="translate(68.42 218.34)">#2</text> <path class="cls-3" d="m47.42 14.51c-3.1 1.48-1.75 19 3.17 35.19 4.75 15.68 15.34 37.51 19.5 36.81 3.8-0.65-8.33-17.68-14.67-36.81-5.96-18-4.67-36.79-8-35.19z"/> <path class="cls-3" d="m60.92 22.67c-3.1 1.49-6.58 12-1.67 28.23 4.76 15.68 17.81 40 21.8 38.62s-8-16-14.3-35.17c-5.96-18.01-2.5-33.27-5.83-31.68z"/> </g> </svg>